# xmcd
#
# Track frame offsets: 
#        150
#        13022
#        27516
#        41737
#        54495
#        68546
#        82438
#        96709
#        109904
#        126638
#        139145
#        153387
#
# Disc length: 2228 seconds
#
# Revision: 0
# Processed by: cddbd v1.5.2PL0 Copyright (c) Steve Scherf et al.
# Submitted via: ExactAudioCopyFreeDBPlugin 1.0
#
DISCID=b408b20c
DTITLE=Parmalee - 27861
DYEAR=2017
DGENRE=Country
TTITLE0=Sunday Morning
TTITLE1=American Nights
TTITLE2=Heartbreaker
TTITLE3=Like A Photograph
TTITLE4=Back In The Game
TTITLE5=Mimosas
TTITLE6=Hotdamalama
TTITLE7=A Guy Meets A Girl
TTITLE8=Savannah
TTITLE9=Drink It Off
TTITLE10=Barrel Of A Shot Glass
TTITLE11=Roots
EXTD=
EXTT0=
EXTT1=
EXTT2=
EXTT3=
EXTT4=
EXTT5=
EXTT6=
EXTT7=
EXTT8=
EXTT9=
EXTT10=
EXTT11=
PLAYORDER=
